<svg id="Layer_1" data-name="Layer 1" xmlns="http://www.w3.org/2000/svg" viewBox="0 0 48 48"><defs><style>.cls-1{fill:none;}.cls-2{fill:#fff;}</style></defs><title>iconos-table</title><path class="cls-1" d="M0,0H48V48H0Z"/><rect x="2" y="6" width="11.43" height="7.59"/><rect x="2" y="24.81" width="11.43" height="7.59"/><rect x="15.51" y="24.81" width="11.43" height="7.59"/><rect x="29.02" y="24.81" width="11.43" height="7.59"/><rect x="2" y="34.24" width="11.43" height="7.59"/><rect x="15.51" y="34.24" width="11.43" height="7.59"/><rect x="29.02" y="34.24" width="11.43" height="7.59"/><path d="M46,13.19a8.92,8.92,0,1,0-8.92,8.92A8.93,8.93,0,0,0,46,13.19ZM41.44,16a1,1,0,0,1-.73,1.77,1,1,0,0,1-.74-.3l-2.73-2.73-2.73,2.73a1.05,1.05,0,0,1-1.47,0A1.05,1.05,0,0,1,33,16l2.73-2.73L33,10.58a1,1,0,1,1,1.47-1.47l2.73,2.73L40,9.11a1.05,1.05,0,0,1,1.47,0,1,1,0,0,1,0,1.47l-2.73,2.73Z"/><path class="cls-1" d="M46,13.19a8.92,8.92,0,0,0-17.84,0,9.25,9.25,0,0,0,.28,2.19H45.75A8.76,8.76,0,0,0,46,13.19Z"/><path d="M26.94,10.41V6H15.51v7.59H26.58c0-.13,0-.26,0-.4A10.66,10.66,0,0,1,26.94,10.41Z"/><path d="M46,18.88A10.65,10.65,0,0,1,41.08,23H46Z"/><path d="M28.48,15.38a8.9,8.9,0,0,0,17.27,0Z"/><path d="M26.79,15.38H2V23H33.16A10.59,10.59,0,0,1,26.79,15.38Z"/><path class="cls-2" d="M41.44,9.11a1.05,1.05,0,0,0-1.47,0l-2.73,2.73L34.51,9.11A1,1,0,1,0,33,10.58l2.73,2.73L33,16a1,1,0,0,0,.74,1.77,1,1,0,0,0,.73-.3l2.73-2.73L40,17.51a1.05,1.05,0,0,0,1.47,0,1,1,0,0,0,0-1.47l-2.73-2.73,2.73-2.73A1,1,0,0,0,41.44,9.11Z"/></svg>