<svg id="Layer_1" data-name="Layer 1" xmlns="http://www.w3.org/2000/svg" viewBox="0 0 48 48"><defs><style>.cls-1{fill:none;}.cls-2{fill:#fff;}</style></defs><title>iconos-table</title><path class="cls-1" d="M0,0H48V48H0Z"/><path class="cls-1" d="M24.07,12.5H19.75a.81.81,0,0,0-.61.23.75.75,0,0,0-.24.58v4.87a.78.78,0,0,0,.24.59.85.85,0,0,0,.61.23h5.59A11.1,11.1,0,0,1,24,13.72,12.12,12.12,0,0,1,24.07,12.5Z"/><path class="cls-1" d="M32.41,24.46v3.47a.75.75,0,0,0,.24.58.79.79,0,0,0,.6.23h8.44a.81.81,0,0,0,.61-.23.75.75,0,0,0,.24-.58V23.06a.79.79,0,0,0-.24-.59.75.75,0,0,0-.24-.15,11,11,0,0,1-7,2.48A11.22,11.22,0,0,1,32.41,24.46Z"/><path class="cls-1" d="M14.68,32H6.24a.85.85,0,0,0-.61.23.76.76,0,0,0-.23.58v4.88a.75.75,0,0,0,.23.58.85.85,0,0,0,.61.23h8.44a.85.85,0,0,0,.61-.23.75.75,0,0,0,.23-.58V32.8a.76.76,0,0,0-.23-.58A.85.85,0,0,0,14.68,32Z"/><path class="cls-1" d="M19.75,22.25a.85.85,0,0,0-.61.22.79.79,0,0,0-.24.59v4.87a.75.75,0,0,0,.24.58.81.81,0,0,0,.61.23h8.44a.81.81,0,0,0,.61-.23.78.78,0,0,0,.23-.58V23.06s0,0,0-.08a10.69,10.69,0,0,1-1-.73Z"/><path class="cls-1" d="M14.68,12.5H6.24a.81.81,0,0,0-.61.23.75.75,0,0,0-.23.58v4.87a.77.77,0,0,0,.23.59.85.85,0,0,0,.61.23h8.44a.85.85,0,0,0,.61-.23.77.77,0,0,0,.23-.59V13.31a.75.75,0,0,0-.23-.58A.81.81,0,0,0,14.68,12.5Z"/><path class="cls-1" d="M41.69,32H33.25a.83.83,0,0,0-.6.23.77.77,0,0,0-.24.58v4.88a.75.75,0,0,0,.24.58.83.83,0,0,0,.6.23h8.44a.85.85,0,0,0,.61-.23.75.75,0,0,0,.24-.58V32.8a.77.77,0,0,0-.24-.58A.85.85,0,0,0,41.69,32Z"/><path class="cls-1" d="M28.19,32H19.75a.85.85,0,0,0-.61.23.77.77,0,0,0-.24.58v4.88a.75.75,0,0,0,.24.58.85.85,0,0,0,.61.23h8.44a.85.85,0,0,0,.61-.23.78.78,0,0,0,.23-.58V32.8a.77.77,0,0,0-.24-.58A.83.83,0,0,0,28.19,32Z"/><path class="cls-1" d="M14.68,22.25H6.24a.85.85,0,0,0-.61.22.78.78,0,0,0-.23.59v4.87a.75.75,0,0,0,.23.58.81.81,0,0,0,.61.23h8.44a.81.81,0,0,0,.61-.23.75.75,0,0,0,.23-.58V23.06a.78.78,0,0,0-.23-.59A.85.85,0,0,0,14.68,22.25Z"/><path d="M45.91,10.06V6H43a10.93,10.93,0,0,1,2.89,5.38Z"/><path d="M25.72,13.72a9.37,9.37,0,1,0,9.36-9.37A9.37,9.37,0,0,0,25.72,13.72Zm5.85,4.85a1.08,1.08,0,0,1-.77-.32,1.1,1.1,0,0,1,0-1.54l2.87-2.87L30.8,11a1.1,1.1,0,0,1,1.55-1.55l2.86,2.87,2.87-2.87A1.09,1.09,0,0,1,39.62,11l-2.87,2.86,2.87,2.87a1.08,1.08,0,0,1,0,1.54,1.09,1.09,0,0,1-1.54,0l-2.87-2.86-2.86,2.86A1.09,1.09,0,0,1,31.57,18.57Z"/><path class="cls-1" d="M14.68,32H6.24a.85.85,0,0,0-.61.23.76.76,0,0,0-.23.58v4.88a.75.75,0,0,0,.23.58.85.85,0,0,0,.61.23h8.44a.85.85,0,0,0,.61-.23.75.75,0,0,0,.23-.58V32.8a.76.76,0,0,0-.23-.58A.85.85,0,0,0,14.68,32Z"/><path class="cls-1" d="M14.68,12.5H6.24a.81.81,0,0,0-.61.23.75.75,0,0,0-.23.58v4.87a.77.77,0,0,0,.23.59.85.85,0,0,0,.61.23h8.44a.85.85,0,0,0,.61-.23.77.77,0,0,0,.23-.59V13.31a.75.75,0,0,0-.23-.58A.81.81,0,0,0,14.68,12.5Z"/><path class="cls-1" d="M19.14,12.73a.75.75,0,0,0-.24.58v4.87a.78.78,0,0,0,.24.59.85.85,0,0,0,.61.23h5.59A11.1,11.1,0,0,1,24,13.72a12.12,12.12,0,0,1,.07-1.22H19.75A.81.81,0,0,0,19.14,12.73Z"/><path class="cls-1" d="M14.68,22.25H6.24a.85.85,0,0,0-.61.22.78.78,0,0,0-.23.59v4.87a.75.75,0,0,0,.23.58.81.81,0,0,0,.61.23h8.44a.81.81,0,0,0,.61-.23.75.75,0,0,0,.23-.58V23.06a.78.78,0,0,0-.23-.59A.85.85,0,0,0,14.68,22.25Z"/><path class="cls-1" d="M19.14,22.47a.79.79,0,0,0-.24.59v4.87a.75.75,0,0,0,.24.58.81.81,0,0,0,.61.23h8.44a.81.81,0,0,0,.61-.23.78.78,0,0,0,.23-.58V23.06s0,0,0-.08a10.69,10.69,0,0,1-1-.73H19.75A.85.85,0,0,0,19.14,22.47Z"/><path class="cls-1" d="M32.65,28.51a.79.79,0,0,0,.6.23h8.44a.81.81,0,0,0,.61-.23.75.75,0,0,0,.24-.58V23.06a.79.79,0,0,0-.24-.59.75.75,0,0,0-.24-.15,11,11,0,0,1-7,2.48,11.22,11.22,0,0,1-2.67-.34v3.47A.75.75,0,0,0,32.65,28.51Z"/><path class="cls-1" d="M28.19,32H19.75a.85.85,0,0,0-.61.23.77.77,0,0,0-.24.58v4.88a.75.75,0,0,0,.24.58.85.85,0,0,0,.61.23h8.44a.85.85,0,0,0,.61-.23.78.78,0,0,0,.23-.58V32.8a.77.77,0,0,0-.24-.58A.83.83,0,0,0,28.19,32Z"/><circle class="cls-1" cx="35.08" cy="13.72" r="9.36"/><path class="cls-1" d="M41.69,32H33.25a.83.83,0,0,0-.6.23.77.77,0,0,0-.24.58v4.88a.75.75,0,0,0,.24.58.83.83,0,0,0,.6.23h8.44a.85.85,0,0,0,.61-.23.75.75,0,0,0,.24-.58V32.8a.77.77,0,0,0-.24-.58A.85.85,0,0,0,41.69,32Z"/><path d="M42.06,22.32a.75.75,0,0,1,.24.15.79.79,0,0,1,.24.59v4.87a.75.75,0,0,1-.24.58.81.81,0,0,1-.61.23H33.25a.79.79,0,0,1-.6-.23.75.75,0,0,1-.24-.58V24.46A11.2,11.2,0,0,1,29,23s0,.05,0,.08v4.87a.78.78,0,0,1-.23.58.81.81,0,0,1-.61.23H19.75a.81.81,0,0,1-.61-.23.75.75,0,0,1-.24-.58V23.06a.79.79,0,0,1,.24-.59.85.85,0,0,1,.61-.22H28A11.34,11.34,0,0,1,25.34,19H19.75a.85.85,0,0,1-.61-.23.78.78,0,0,1-.24-.59V13.31a.75.75,0,0,1,.24-.58.81.81,0,0,1,.61-.23h4.32A11.07,11.07,0,0,1,27.14,6H2V41.83H45.91V16.05A11.1,11.1,0,0,1,42.06,22.32ZM15.52,37.68a.75.75,0,0,1-.23.58.85.85,0,0,1-.61.23H6.24a.85.85,0,0,1-.61-.23.75.75,0,0,1-.23-.58V32.8a.76.76,0,0,1,.23-.58A.85.85,0,0,1,6.24,32h8.44a.85.85,0,0,1,.61.23.76.76,0,0,1,.23.58Zm0-9.75a.75.75,0,0,1-.23.58.81.81,0,0,1-.61.23H6.24a.81.81,0,0,1-.61-.23.75.75,0,0,1-.23-.58V23.06a.78.78,0,0,1,.23-.59.85.85,0,0,1,.61-.22h8.44a.85.85,0,0,1,.61.22.78.78,0,0,1,.23.59Zm0-9.75a.77.77,0,0,1-.23.59.85.85,0,0,1-.61.23H6.24a.85.85,0,0,1-.61-.23.77.77,0,0,1-.23-.59V13.31a.75.75,0,0,1,.23-.58.81.81,0,0,1,.61-.23h8.44a.81.81,0,0,1,.61.23.75.75,0,0,1,.23.58ZM29,37.68a.78.78,0,0,1-.23.58.85.85,0,0,1-.61.23H19.75a.85.85,0,0,1-.61-.23.75.75,0,0,1-.24-.58V32.8a.77.77,0,0,1,.24-.58.85.85,0,0,1,.61-.23h8.44a.83.83,0,0,1,.6.23.77.77,0,0,1,.24.58Zm13.51,0a.75.75,0,0,1-.24.58.85.85,0,0,1-.61.23H33.25a.83.83,0,0,1-.6-.23.75.75,0,0,1-.24-.58V32.8a.77.77,0,0,1,.24-.58.83.83,0,0,1,.6-.23h8.44a.85.85,0,0,1,.61.23.77.77,0,0,1,.24.58Z"/><path class="cls-2" d="M35.21,15.39l2.87,2.86a1.09,1.09,0,0,0,1.54,0,1.08,1.08,0,0,0,0-1.54l-2.87-2.87L39.62,11a1.09,1.09,0,0,0-1.54-1.55L35.21,12.3,32.35,9.43A1.1,1.1,0,0,0,30.8,11l2.87,2.86L30.8,16.71a1.1,1.1,0,0,0,0,1.54,1.1,1.1,0,0,0,1.55,0Z"/></svg>