<svg id="Layer_1" data-name="Layer 1" xmlns="http://www.w3.org/2000/svg" viewBox="0 0 48 48"><defs><style>.cls-1{fill:none;}.cls-2{fill:#fff;}</style></defs><title>iconos-table</title><path class="cls-1" d="M0,0H48V48H0Z"/><rect x="2" y="6" width="13.22" height="35.83"/><path d="M26.57,11.54A10.48,10.48,0,0,1,28.16,6H17.39V41.83H30.61v-22A10.53,10.53,0,0,1,26.57,11.54Z"/><path d="M37.12,22.08a10.47,10.47,0,0,1-4.34-.94V41.83H46V17.2A10.54,10.54,0,0,1,37.12,22.08Z"/><path d="M28.21,11.54a8.91,8.91,0,1,0,8.91-8.91A8.92,8.92,0,0,0,28.21,11.54Zm4.84-4.07a1,1,0,0,1,1.46,0l2.73,2.72L40,7.47a1,1,0,1,1,1.47,1.46l-2.73,2.73,2.73,2.73a1,1,0,0,1-.74,1.77,1,1,0,0,1-.73-.31l-2.73-2.72-2.72,2.72a1,1,0,0,1-.74.31,1,1,0,0,1-.73-.31,1,1,0,0,1,0-1.46l2.72-2.73L33.05,8.93A1,1,0,0,1,33.05,7.47Z"/><path class="cls-2" d="M33.05,8.93l2.72,2.73-2.72,2.73a1,1,0,0,0,0,1.46,1,1,0,0,0,.73.31,1,1,0,0,0,.74-.31l2.72-2.72L40,15.85a1,1,0,0,0,.73.31,1,1,0,0,0,.74-1.77l-2.73-2.73,2.73-2.73A1,1,0,1,0,40,7.47l-2.73,2.72L34.51,7.47a1,1,0,0,0-1.46,1.46Z"/></svg>